# xmcd
#
# Track frame offsets: 
#        150
#        14943
#        26716
#        67060
#        103909
#        128068
#        163584
#        200647
#        222225
#        254702
#        285824
#        303871
#        318628
#
# Disc length: 4725 seconds
#
# Revision: 0
# Processed by: cddbd v1.5.2PL0 Copyright (c) Steve Scherf et al.
# Submitted via: ExactAudioCopy v1.0b3
#
DISCID=c912730d
DTITLE=Various Artist - Techno Sounds Vol. 1 - CD 2
DYEAR=1900
DGENRE=
TTITLE0=Groove Solution - Magic Melody '99 (New Radio Mix)
TTITLE1=S.O. Project - Direct Dizko
TTITLE2=Criss Source - Once Upon
TTITLE3=DJ Merlyn - Krass
TTITLE4=Jerôllé - Eternal Flow
TTITLE5=Face - !The Face!
TTITLE6=Avenger - For The Sake Of Future
TTITLE7=DJ Rodd-Y-Ler - Nightflight
TTITLE8=DJ Erg - The Shelter (Anonym Mix)
TTITLE9=Tube - Wake Up
TTITLE10=Aquaplex - Brightness '99 (DJ Sakin and Friends Remix Edit)
TTITLE11=Kaylab - Lärm Macht Krank (Three O'Clock Radio Tool)
TTITLE12=Emmanuel Top - urkish Bazar 2000 (Future Breeze Rmx)
EXTD=
EXTT0=
EXTT1=
EXTT2=
EXTT3=
EXTT4=
EXTT5=
EXTT6=
EXTT7=
EXTT8=
EXTT9=
EXTT10=
EXTT11=
EXTT12=
PLAYORDER=
